# xmcd CD database file
#
# Track frame offsets:
#	182
#	23080
#	37697
#	59102
#	85965
#	100655
#	118390
#	137897
#	163482
#	178395
#	200207
#	226662
#
# Disc length: 3281 seconds
#
# Revision: 4
# Processed by: cddbd v1.5.2PL0 Copyright (c) Steve Scherf et al.
# Submitted via: CDex 1.91
#
DISCID=ae0ccf0c
DTITLE=Michael Feinstein - Isn't It Romantic
DYEAR=1988
DGENRE=Jazz
TTITLE0=Isn't It Romantic
TTITLE1=Where Do You Start
TTITLE2=A Fine Romance
TTITLE3=I  Can Dream Can't I/I'll Be Seeing You
TTITLE4=You're An Education
TTITLE5=My Favorite Year
TTITLE6=No Other Love
TTITLE7=I Wanna Be Loved
TTITLE8=How About You
TTITLE9=I'll Get By
TTITLE10=I Won't Send Roses/Time Heals Everything
TTITLE11=Wasn't It Romantic
EXTD=YEAR: 1988
EXTT0=
EXTT1=
EXTT2=
EXTT3=
EXTT4=
EXTT5=
EXTT6=
EXTT7=
EXTT8=
EXTT9=
EXTT10=
EXTT11=
PLAYORDER=
